<svg xmlns="http://www.w3.org/2000/svg" xmlns:xlink="http://www.w3.org/1999/xlink" viewBox="0 0 375 375">
  <!-- Forest background with rounded corners -->
  <rect width="375" height="375" rx="64" fill="#404E3B"/>
  <defs>
    <clipPath id="icon-s-clip">
      <rect x="0" width="223" y="0" height="320"/>
    </clipPath>
  </defs>
  <!-- S mark — white on forest -->
  <g transform="matrix(1, 0, 0, 1, 100, 28)">
    <g clip-path="url(#icon-s-clip)">
      <g fill="#F9F8F5" fill-opacity="1">
        <g transform="translate(0.732948, 231.574863)">
          <g><path d="M 72.609375 2.984375 C 63.910156 2.984375 56.113281 1.671875 49.21875 -0.953125 C 42.332031 -3.578125 36.210938 -7.335938 30.859375 -12.234375 C 25.515625 -17.128906 21.070312 -23.019531 17.53125 -29.90625 C 14 -36.800781 11.328125 -44.421875 9.515625 -52.765625 L 22.03125 -74.515625 C 28.738281 -71.617188 36.265625 -68.988281 44.609375 -66.625 C 51.671875 -64.632812 59.914062 -62.597656 69.34375 -60.515625 C 78.78125 -58.429688 89.117188 -56.84375 100.359375 -55.75 C 99.453125 -61.007812 97.773438 -65.722656 95.328125 -69.890625 C 92.878906 -74.066406 88.84375 -78.601562 83.21875 -83.5 C 76.875 -89.113281 71.253906 -94.234375 66.359375 -98.859375 C 61.460938 -103.484375 57.335938 -108.0625 53.984375 -112.59375 C 50.628906 -117.125 48.085938 -121.789062 46.359375 -126.59375 C 44.640625 -131.40625 43.78125 -136.800781 43.78125 -142.78125 C 43.78125 -149.488281 45.273438 -155.878906 48.265625 -161.953125 C 51.265625 -168.023438 55.484375 -173.375 60.921875 -178 C 66.359375 -182.625 72.882812 -186.296875 80.5 -189.015625 C 88.113281 -191.734375 96.546875 -193.09375 105.796875 -193.09375 C 112.503906 -193.09375 118.710938 -192.09375 124.421875 -190.09375 C 130.140625 -188.101562 135.035156 -185.296875 139.109375 -181.671875 C 143.191406 -178.046875 146.363281 -173.691406 148.625 -168.609375 C 150.894531 -163.535156 152.03125 -157.921875 152.03125 -151.765625 C 152.03125 -148.679688 151.710938 -145.640625 151.078125 -142.640625 C 150.441406 -139.648438 149.671875 -136.890625 148.765625 -134.359375 C 147.859375 -131.453125 146.769531 -128.726562 145.5 -126.1875 L 118.578125 -136.25 C 118.941406 -137.15625 119.304688 -138.15625 119.671875 -139.25 C 120.023438 -140.15625 120.335938 -141.242188 120.609375 -142.515625 C 120.890625 -143.785156 121.03125 -145.144531 121.03125 -146.59375 C 121.03125 -150.945312 119.394531 -154.4375 116.125 -157.0625 C 112.863281 -159.6875 107.425781 -161 99.8125 -161 C 92.738281 -161 87.023438 -159.09375 82.671875 -155.28125 C 78.328125 -151.476562 76.15625 -147.222656 76.15625 -142.515625 C 76.15625 -137.429688 77.785156 -132.578125 81.046875 -127.953125 C 84.304688 -123.335938 90.019531 -117.492188 98.1875 -110.421875 C 102.53125 -106.609375 106.785156 -102.84375 110.953125 -99.125 C 115.128906 -95.414062 118.894531 -91.382812 122.25 -87.03125 C 125.601562 -82.675781 128.410156 -77.78125 130.671875 -72.34375 C 132.941406 -66.90625 134.347656 -60.648438 134.890625 -53.578125 C 151.578125 -54.484375 164.90625 -57.15625 174.875 -61.59375 C 184.84375 -66.039062 192.1875 -71.164062 196.90625 -76.96875 L 218.390625 -57.109375 C 214.398438 -52.398438 209.367188 -48.09375 203.296875 -44.1875 C 197.222656 -40.289062 190.285156 -36.984375 182.484375 -34.265625 C 174.691406 -31.546875 166.257812 -29.460938 157.1875 -28.015625 C 148.125 -26.566406 138.609375 -25.84375 128.640625 -25.84375 C 123.921875 -16.769531 116.800781 -9.695312 107.28125 -4.625 C 97.769531 0.445312 86.210938 2.984375 72.609375 2.984375 Z M 71.53125 -22.578125 C 80.226562 -22.578125 86.570312 -24.929688 90.5625 -29.640625 C 81.675781 -30.546875 73.378906 -32.039062 65.671875 -34.125 C 57.972656 -36.21875 51.222656 -38.257812 45.421875 -40.25 C 47.953125 -35.175781 51.347656 -30.960938 55.609375 -27.609375 C 59.878906 -24.253906 65.1875 -22.578125 71.53125 -22.578125 Z M 71.53125 -22.578125 "/></g>
        </g>
      </g>
    </g>
  </g>
</svg>
