<svg xmlns="http://www.w3.org/2000/svg" xmlns:xlink="http://www.w3.org/1999/xlink" width="500" zoomAndPan="magnify" viewBox="0 0 375 374.999991" height="500" preserveAspectRatio="xMidYMid meet" version="1.0"><defs><g/><clipPath id="ef8a45e84e"><rect x="0" width="256" y="0" height="86"/></clipPath><clipPath id="d389deb0fb"><rect x="0" width="140" y="0" height="13"/></clipPath></defs><g fill="#7b9669" fill-opacity="1"><g transform="translate(41.155103, 215.999986)"><g><path d="M 28.71875 1.1875 C 25.269531 1.1875 22.179688 0.664062 19.453125 -0.375 C 16.734375 -1.414062 14.316406 -2.90625 12.203125 -4.84375 C 10.085938 -6.78125 8.332031 -9.109375 6.9375 -11.828125 C 5.539062 -14.554688 4.484375 -17.566406 3.765625 -20.859375 L 8.71875 -29.46875 C 11.363281 -28.320312 14.335938 -27.28125 17.640625 -26.34375 C 20.429688 -25.5625 23.691406 -24.753906 27.421875 -23.921875 C 31.148438 -23.097656 35.238281 -22.472656 39.6875 -22.046875 C 39.320312 -24.128906 38.65625 -25.992188 37.6875 -27.640625 C 36.726562 -29.285156 35.132812 -31.078125 32.90625 -33.015625 C 30.394531 -35.234375 28.171875 -37.253906 26.234375 -39.078125 C 24.304688 -40.910156 22.675781 -42.722656 21.34375 -44.515625 C 20.019531 -46.316406 19.015625 -48.164062 18.328125 -50.0625 C 17.648438 -51.957031 17.3125 -54.09375 17.3125 -56.46875 C 17.3125 -59.113281 17.898438 -61.632812 19.078125 -64.03125 C 20.265625 -66.4375 21.929688 -68.550781 24.078125 -70.375 C 26.234375 -72.207031 28.816406 -73.660156 31.828125 -74.734375 C 34.835938 -75.816406 38.171875 -76.359375 41.828125 -76.359375 C 44.484375 -76.359375 46.941406 -75.960938 49.203125 -75.171875 C 51.460938 -74.390625 53.398438 -73.28125 55.015625 -71.84375 C 56.628906 -70.40625 57.882812 -68.679688 58.78125 -66.671875 C 59.675781 -64.671875 60.125 -62.453125 60.125 -60.015625 C 60.125 -58.796875 59.992188 -57.59375 59.734375 -56.40625 C 59.484375 -55.226562 59.179688 -54.132812 58.828125 -53.125 C 58.472656 -51.976562 58.039062 -50.90625 57.53125 -49.90625 L 46.890625 -53.875 C 47.035156 -54.238281 47.179688 -54.632812 47.328125 -55.0625 C 47.460938 -55.425781 47.582031 -55.859375 47.6875 -56.359375 C 47.800781 -56.859375 47.859375 -57.394531 47.859375 -57.96875 C 47.859375 -59.6875 47.210938 -61.066406 45.921875 -62.109375 C 44.628906 -63.148438 42.476562 -63.671875 39.46875 -63.671875 C 36.675781 -63.671875 34.414062 -62.914062 32.6875 -61.40625 C 30.96875 -59.90625 30.109375 -58.222656 30.109375 -56.359375 C 30.109375 -54.347656 30.753906 -52.425781 32.046875 -50.59375 C 33.335938 -48.769531 35.597656 -46.457031 38.828125 -43.65625 C 40.546875 -42.15625 42.226562 -40.671875 43.875 -39.203125 C 45.53125 -37.734375 47.019531 -36.132812 48.34375 -34.40625 C 49.664062 -32.6875 50.773438 -30.75 51.671875 -28.59375 C 52.566406 -26.445312 53.125 -23.976562 53.34375 -21.1875 C 59.9375 -21.539062 65.203125 -22.597656 69.140625 -24.359375 C 73.085938 -26.117188 75.992188 -28.144531 77.859375 -30.4375 L 86.359375 -22.578125 C 84.785156 -20.710938 82.796875 -19.007812 80.390625 -17.46875 C 77.984375 -15.9375 75.238281 -14.628906 72.15625 -13.546875 C 69.082031 -12.472656 65.75 -11.648438 62.15625 -11.078125 C 58.570312 -10.503906 54.8125 -10.21875 50.875 -10.21875 C 49.007812 -6.632812 46.191406 -3.835938 42.421875 -1.828125 C 38.660156 0.179688 34.09375 1.1875 28.71875 1.1875 Z M 28.28125 -8.921875 C 31.726562 -8.921875 34.238281 -9.851562 35.8125 -11.71875 C 32.300781 -12.082031 29.019531 -12.675781 25.96875 -13.5 C 22.925781 -14.320312 20.253906 -15.128906 17.953125 -15.921875 C 18.960938 -13.910156 20.304688 -12.238281 21.984375 -10.90625 C 23.671875 -9.582031 25.769531 -8.921875 28.28125 -8.921875 Z M 28.28125 -8.921875 "/></g></g></g><g transform="matrix(1, 0, 0, 1, 94, 147)"><g clip-path="url(#ef8a45e84e)"><g fill="#7b9669" fill-opacity="1"><g transform="translate(0.640228, 63.368438)"><g><path d="M 32.609375 -41.171875 L 44.1875 -41.171875 L 44.1875 0 L 32.609375 0 L 32.609375 -2.9375 C 31.734375 -1.738281 30.316406 -0.800781 28.359375 -0.125 C 26.410156 0.550781 24.484375 0.890625 22.578125 0.890625 C 18.828125 0.890625 15.429688 -0.0820312 12.390625 -2.03125 C 9.347656 -3.988281 6.914062 -6.582031 5.09375 -9.8125 C 3.269531 -13.050781 2.359375 -16.628906 2.359375 -20.546875 C 2.359375 -24.515625 3.28125 -28.128906 5.125 -31.390625 C 6.976562 -34.648438 9.441406 -37.242188 12.515625 -39.171875 C 15.585938 -41.097656 18.941406 -42.0625 22.578125 -42.0625 C 24.421875 -42.0625 26.332031 -41.679688 28.3125 -40.921875 C 30.300781 -40.160156 31.734375 -39.289062 32.609375 -38.3125 Z M 23.71875 -10.59375 C 26.4375 -10.59375 28.675781 -11.515625 30.4375 -13.359375 C 32.207031 -15.210938 33.09375 -17.609375 33.09375 -20.546875 C 33.09375 -23.421875 32.207031 -25.796875 30.4375 -27.671875 C 28.675781 -29.546875 26.4375 -30.484375 23.71875 -30.484375 C 21.0625 -30.484375 18.796875 -29.546875 16.921875 -27.671875 C 15.046875 -25.796875 14.109375 -23.421875 14.109375 -20.546875 C 14.109375 -17.609375 15.046875 -15.210938 16.921875 -13.359375 C 18.796875 -11.515625 21.0625 -10.59375 23.71875 -10.59375 Z M 23.71875 -10.59375 "/></g></g></g><g fill="#7b9669" fill-opacity="1"><g transform="translate(42.208917, 63.368438)"><g><path d="M 27.875 -61.296875 L 27.875 -49.390625 C 25.21875 -49.390625 23.070312 -48.679688 21.4375 -47.265625 C 19.8125 -45.859375 19 -44.148438 19 -42.140625 L 19 -41.171875 L 27.0625 -41.171875 L 27.0625 -30.484375 L 19 -30.484375 L 19 0 L 7.421875 0 L 7.421875 -30.484375 L 1.796875 -30.484375 L 1.796875 -41.171875 L 7.421875 -41.171875 L 7.421875 -41.734375 C 7.421875 -45.535156 8.34375 -48.90625 10.1875 -51.84375 C 12.039062 -54.78125 14.523438 -57.085938 17.640625 -58.765625 C 20.765625 -60.453125 24.175781 -61.296875 27.875 -61.296875 Z M 27.875 -61.296875 "/></g></g></g><g fill="#7b9669" fill-opacity="1"><g transform="translate(64.541301, 63.368438)"><g><path d="M 33.578125 -14.75 L 42.796875 -7.65625 C 41.054688 -5.050781 38.53125 -2.972656 35.21875 -1.421875 C 31.90625 0.117188 28.398438 0.890625 24.703125 0.890625 C 21.597656 0.890625 18.703125 0.332031 16.015625 -0.78125 C 13.328125 -1.894531 10.945312 -3.441406 8.875 -5.421875 C 6.8125 -7.398438 5.207031 -9.679688 4.0625 -12.265625 C 2.925781 -14.847656 2.359375 -17.609375 2.359375 -20.546875 C 2.359375 -24.515625 3.320312 -28.128906 5.25 -31.390625 C 7.1875 -34.648438 9.769531 -37.242188 13 -39.171875 C 16.238281 -41.097656 19.8125 -42.0625 23.71875 -42.0625 C 27.144531 -42.0625 30.242188 -41.378906 33.015625 -40.015625 C 35.785156 -38.660156 38.148438 -36.882812 40.109375 -34.6875 C 42.066406 -32.488281 43.453125 -30.109375 44.265625 -27.546875 L 21.28125 -11.09375 C 21.820312 -10.875 22.375 -10.734375 22.9375 -10.671875 C 23.507812 -10.617188 24.097656 -10.59375 24.703125 -10.59375 C 26.441406 -10.59375 28.125 -10.914062 29.75 -11.5625 C 31.382812 -12.21875 32.660156 -13.28125 33.578125 -14.75 Z M 14.109375 -20.546875 C 14.109375 -19.453125 14.210938 -18.554688 14.421875 -17.859375 L 29.421875 -28.53125 C 28.609375 -29.125 27.722656 -29.597656 26.765625 -29.953125 C 25.816406 -30.304688 24.800781 -30.484375 23.71875 -30.484375 C 21.0625 -30.484375 18.796875 -29.546875 16.921875 -27.671875 C 15.046875 -25.796875 14.109375 -23.421875 14.109375 -20.546875 Z M 14.109375 -20.546875 "/></g></g></g><g fill="#7b9669" fill-opacity="1"><g transform="translate(104.479776, 63.368438)"><g><path d="M 24.78125 -10.515625 L 18.421875 -10.515625 L 18.421875 0 L 5.78125 0 L 5.78125 -60.734375 L 26.90625 -60.734375 C 30.488281 -60.734375 33.800781 -60.117188 36.84375 -58.890625 C 39.882812 -57.671875 42.546875 -55.957031 44.828125 -53.75 C 47.109375 -51.550781 48.890625 -49.007812 50.171875 -46.125 C 51.453125 -43.25 52.09375 -40.15625 52.09375 -36.84375 C 52.09375 -31.40625 50.867188 -26.726562 48.421875 -22.8125 C 45.972656 -18.90625 42.628906 -15.972656 38.390625 -14.015625 L 51.515625 0 L 34.71875 0 Z M 18.421875 -21.921875 L 23.640625 -21.921875 C 28.640625 -21.921875 32.46875 -23.113281 35.125 -25.5 C 37.789062 -27.894531 39.125 -31.347656 39.125 -35.859375 C 39.125 -38.359375 38.632812 -40.613281 37.65625 -42.625 C 36.675781 -44.644531 35.222656 -46.265625 33.296875 -47.484375 C 31.367188 -48.703125 28.960938 -49.3125 26.078125 -49.3125 L 18.421875 -49.3125 Z M 18.421875 -21.921875 "/></g></g></g><g fill="#7b9669" fill-opacity="1"><g transform="translate(152.813759, 63.368438)"><g><path d="M 9.78125 -48.421875 C 7.988281 -48.421875 6.425781 -49.070312 5.09375 -50.375 C 3.757812 -51.675781 3.09375 -53.222656 3.09375 -55.015625 C 3.09375 -56.648438 3.757812 -58.117188 5.09375 -59.421875 C 6.425781 -60.722656 7.988281 -61.375 9.78125 -61.375 C 11.738281 -61.375 13.378906 -60.734375 14.703125 -59.453125 C 16.035156 -58.179688 16.703125 -56.703125 16.703125 -55.015625 C 16.703125 -53.222656 16.035156 -51.675781 14.703125 -50.375 C 13.378906 -49.070312 11.738281 -48.421875 9.78125 -48.421875 Z M 15.65625 -41.171875 L 15.65625 0 L 4.078125 0 L 4.078125 -41.171875 Z M 15.65625 -41.171875 "/></g></g></g><g fill="#7b9669" fill-opacity="1"><g transform="translate(165.854019, 63.368438)"><g><path d="M 32.609375 -60.734375 L 44.1875 -60.734375 L 44.1875 0 L 32.609375 0 L 32.609375 -2.9375 C 31.734375 -1.738281 30.316406 -0.800781 28.359375 -0.125 C 26.410156 0.550781 24.484375 0.890625 22.578125 0.890625 C 18.828125 0.890625 15.429688 -0.0820312 12.390625 -2.03125 C 9.347656 -3.988281 6.914062 -6.582031 5.09375 -9.8125 C 3.269531 -13.050781 2.359375 -16.628906 2.359375 -20.546875 C 2.359375 -24.515625 3.28125 -28.128906 5.125 -31.390625 C 6.976562 -34.648438 9.441406 -37.242188 12.515625 -39.171875 C 15.585938 -41.097656 18.941406 -42.0625 22.578125 -42.0625 C 24.421875 -42.0625 26.332031 -41.679688 28.3125 -40.921875 C 30.300781 -40.160156 31.734375 -39.289062 32.609375 -38.3125 Z M 23.71875 -10.59375 C 26.4375 -10.59375 28.675781 -11.515625 30.4375 -13.359375 C 32.207031 -15.210938 33.09375 -17.609375 33.09375 -20.546875 C 33.09375 -23.421875 32.207031 -25.796875 30.4375 -27.671875 C 28.675781 -29.546875 26.4375 -30.484375 23.71875 -30.484375 C 21.0625 -30.484375 18.796875 -29.546875 16.921875 -27.671875 C 15.046875 -25.796875 14.109375 -23.421875 14.109375 -20.546875 C 14.109375 -17.609375 15.046875 -15.210938 16.921875 -13.359375 C 18.796875 -11.515625 21.0625 -10.59375 23.71875 -10.59375 Z M 23.71875 -10.59375 "/></g></g></g><g fill="#7b9669" fill-opacity="1"><g transform="translate(207.422708, 63.368438)"><g><path d="M 33.578125 -14.75 L 42.796875 -7.65625 C 41.054688 -5.050781 38.53125 -2.972656 35.21875 -1.421875 C 31.90625 0.117188 28.398438 0.890625 24.703125 0.890625 C 21.597656 0.890625 18.703125 0.332031 16.015625 -0.78125 C 13.328125 -1.894531 10.945312 -3.441406 8.875 -5.421875 C 6.8125 -7.398438 5.207031 -9.679688 4.0625 -12.265625 C 2.925781 -14.847656 2.359375 -17.609375 2.359375 -20.546875 C 2.359375 -24.515625 3.320312 -28.128906 5.25 -31.390625 C 7.1875 -34.648438 9.769531 -37.242188 13 -39.171875 C 16.238281 -41.097656 19.8125 -42.0625 23.71875 -42.0625 C 27.144531 -42.0625 30.242188 -41.378906 33.015625 -40.015625 C 35.785156 -38.660156 38.148438 -36.882812 40.109375 -34.6875 C 42.066406 -32.488281 43.453125 -30.109375 44.265625 -27.546875 L 21.28125 -11.09375 C 21.820312 -10.875 22.375 -10.734375 22.9375 -10.671875 C 23.507812 -10.617188 24.097656 -10.59375 24.703125 -10.59375 C 26.441406 -10.59375 28.125 -10.914062 29.75 -11.5625 C 31.382812 -12.21875 32.660156 -13.28125 33.578125 -14.75 Z M 14.109375 -20.546875 C 14.109375 -19.453125 14.210938 -18.554688 14.421875 -17.859375 L 29.421875 -28.53125 C 28.609375 -29.125 27.722656 -29.597656 26.765625 -29.953125 C 25.816406 -30.304688 24.800781 -30.484375 23.71875 -30.484375 C 21.0625 -30.484375 18.796875 -29.546875 16.921875 -27.671875 C 15.046875 -25.796875 14.109375 -23.421875 14.109375 -20.546875 Z M 14.109375 -20.546875 "/></g></g></g></g></g><g transform="matrix(1, 0, 0, 1, 97, 219)"><g clip-path="url(#d389deb0fb)"><g fill="#000000" fill-opacity="1"><g transform="translate(1.134919, 9.328606)"><g><path d="M 0.96875 -6.453125 L 5.390625 -6.453125 L 5.390625 -5.8125 L 1.65625 -5.8125 L 1.65625 -3.6875 L 4.65625 -3.6875 L 4.65625 -3.046875 L 1.65625 -3.046875 L 1.65625 -0.640625 L 5.484375 -0.640625 L 5.484375 0 L 0.96875 0 Z M 0.96875 -6.453125 "/></g></g></g><g fill="#000000" fill-opacity="1"><g transform="translate(6.98969, 9.328606)"><g><path d="M 0.28125 -6.453125 L 1.015625 -6.453125 L 3.140625 -0.96875 L 5.25 -6.453125 L 5.984375 -6.453125 L 3.453125 0 L 2.8125 0 Z M 0.28125 -6.453125 "/></g></g></g><g fill="#000000" fill-opacity="1"><g transform="translate(13.213271, 9.328606)"><g><path d="M 0.96875 -6.453125 L 5.390625 -6.453125 L 5.390625 -5.8125 L 1.65625 -5.8125 L 1.65625 -3.6875 L 4.65625 -3.6875 L 4.65625 -3.046875 L 1.65625 -3.046875 L 1.65625 -0.640625 L 5.484375 -0.640625 L 5.484375 0 L 0.96875 0 Z M 0.96875 -6.453125 "/></g></g></g><g fill="#000000" fill-opacity="1"><g transform="translate(19.068041, 9.328606)"><g><path d="M 0.96875 -6.453125 L 3.546875 -6.453125 C 3.835938 -6.453125 4.101562 -6.398438 4.34375 -6.296875 C 4.582031 -6.203125 4.789062 -6.066406 4.96875 -5.890625 C 5.144531 -5.722656 5.28125 -5.519531 5.375 -5.28125 C 5.476562 -5.050781 5.53125 -4.796875 5.53125 -4.515625 C 5.53125 -4.148438 5.457031 -3.847656 5.3125 -3.609375 C 5.175781 -3.367188 5.023438 -3.179688 4.859375 -3.046875 C 4.660156 -2.878906 4.4375 -2.753906 4.1875 -2.671875 L 5.71875 0 L 4.9375 0 L 3.5 -2.578125 L 1.65625 -2.578125 L 1.65625 0 L 0.96875 0 Z M 3.546875 -3.21875 C 3.941406 -3.21875 4.253906 -3.332031 4.484375 -3.5625 C 4.722656 -3.800781 4.84375 -4.117188 4.84375 -4.515625 C 4.84375 -4.910156 4.722656 -5.222656 4.484375 -5.453125 C 4.253906 -5.691406 3.941406 -5.8125 3.546875 -5.8125 L 1.65625 -5.8125 L 1.65625 -3.21875 Z M 3.546875 -3.21875 "/></g></g></g><g fill="#000000" fill-opacity="1"><g transform="translate(25.245512, 9.328606)"><g><path d="M 2.578125 -2.265625 L 0.1875 -6.453125 L 0.96875 -6.453125 L 2.90625 -3 L 2.953125 -3 L 4.890625 -6.453125 L 5.671875 -6.453125 L 3.265625 -2.265625 L 3.265625 0 L 2.578125 0 Z M 2.578125 -2.265625 "/></g></g></g><g fill="#000000" fill-opacity="1"><g transform="translate(31.054184, 9.328606)"><g/></g></g><g fill="#000000" fill-opacity="1"><g transform="translate(32.94431, 9.328606)"><g><path d="M 3.875 0.09375 C 3.414062 0.09375 2.984375 0.0078125 2.578125 -0.15625 C 2.171875 -0.332031 1.816406 -0.570312 1.515625 -0.875 C 1.210938 -1.175781 0.972656 -1.523438 0.796875 -1.921875 C 0.628906 -2.328125 0.546875 -2.757812 0.546875 -3.21875 C 0.546875 -3.6875 0.628906 -4.117188 0.796875 -4.515625 C 0.972656 -4.921875 1.210938 -5.273438 1.515625 -5.578125 C 1.816406 -5.878906 2.171875 -6.113281 2.578125 -6.28125 C 2.984375 -6.457031 3.414062 -6.546875 3.875 -6.546875 C 4.3125 -6.546875 4.691406 -6.472656 5.015625 -6.328125 C 5.347656 -6.191406 5.625 -6.039062 5.84375 -5.875 C 6.09375 -5.675781 6.3125 -5.453125 6.5 -5.203125 L 6.03125 -4.796875 C 5.882812 -5.003906 5.707031 -5.1875 5.5 -5.34375 C 5.320312 -5.488281 5.097656 -5.617188 4.828125 -5.734375 C 4.554688 -5.847656 4.238281 -5.90625 3.875 -5.90625 C 3.5 -5.90625 3.148438 -5.835938 2.828125 -5.703125 C 2.515625 -5.566406 2.238281 -5.378906 2 -5.140625 C 1.769531 -4.898438 1.585938 -4.613281 1.453125 -4.28125 C 1.316406 -3.957031 1.25 -3.601562 1.25 -3.21875 C 1.25 -2.84375 1.316406 -2.488281 1.453125 -2.15625 C 1.585938 -1.832031 1.769531 -1.550781 2 -1.3125 C 2.238281 -1.070312 2.515625 -0.882812 2.828125 -0.75 C 3.148438 -0.613281 3.5 -0.546875 3.875 -0.546875 C 4.238281 -0.546875 4.554688 -0.601562 4.828125 -0.71875 C 5.109375 -0.832031 5.34375 -0.960938 5.53125 -1.109375 C 5.75 -1.265625 5.929688 -1.445312 6.078125 -1.65625 L 6.546875 -1.25 C 6.359375 -0.988281 6.128906 -0.765625 5.859375 -0.578125 C 5.628906 -0.410156 5.347656 -0.253906 5.015625 -0.109375 C 4.691406 0.0234375 4.3125 0.09375 3.875 0.09375 Z M 3.875 0.09375 "/></g></g></g><g fill="#000000" fill-opacity="1"><g transform="translate(39.813291, 9.328606)"><g><path d="M 0.96875 -6.453125 L 1.65625 -6.453125 L 1.65625 -3.59375 L 5.25 -3.59375 L 5.25 -6.453125 L 5.953125 -6.453125 L 5.953125 0 L 5.25 0 L 5.25 -2.953125 L 1.65625 -2.953125 L 1.65625 0 L 0.96875 0 Z M 0.96875 -6.453125 "/></g></g></g><g fill="#000000" fill-opacity="1"><g transform="translate(46.682272, 9.328606)"><g><path d="M 0.96875 -6.453125 L 1.65625 -6.453125 L 1.65625 0 L 0.96875 0 Z M 0.96875 -6.453125 "/></g></g></g><g fill="#000000" fill-opacity="1"><g transform="translate(49.263908, 9.328606)"><g><path d="M 0.96875 -6.453125 L 1.65625 -6.453125 L 1.65625 -0.640625 L 4.984375 -0.640625 L 4.984375 0 L 0.96875 0 Z M 0.96875 -6.453125 "/></g></g></g><g fill="#000000" fill-opacity="1"><g transform="translate(54.38107, 9.328606)"><g><path d="M 0.96875 -6.453125 L 3 -6.453125 C 3.46875 -6.453125 3.90625 -6.363281 4.3125 -6.1875 C 4.726562 -6.019531 5.085938 -5.785156 5.390625 -5.484375 C 5.691406 -5.191406 5.925781 -4.847656 6.09375 -4.453125 C 6.269531 -4.066406 6.359375 -3.65625 6.359375 -3.21875 C 6.359375 -2.789062 6.269531 -2.378906 6.09375 -1.984375 C 5.925781 -1.597656 5.691406 -1.253906 5.390625 -0.953125 C 5.085938 -0.660156 4.726562 -0.425781 4.3125 -0.25 C 3.90625 -0.0820312 3.46875 0 3 0 L 0.96875 0 Z M 3 -0.640625 C 3.375 -0.640625 3.722656 -0.707031 4.046875 -0.84375 C 4.378906 -0.976562 4.664062 -1.160156 4.90625 -1.390625 C 5.144531 -1.628906 5.332031 -1.90625 5.46875 -2.21875 C 5.601562 -2.53125 5.671875 -2.863281 5.671875 -3.21875 C 5.671875 -3.582031 5.601562 -3.921875 5.46875 -4.234375 C 5.332031 -4.546875 5.144531 -4.816406 4.90625 -5.046875 C 4.664062 -5.285156 4.378906 -5.472656 4.046875 -5.609375 C 3.722656 -5.742188 3.375 -5.8125 3 -5.8125 L 1.65625 -5.8125 L 1.65625 -0.640625 Z M 3 -0.640625 "/></g></g></g><g fill="#000000" fill-opacity="1"><g transform="translate(61.250051, 9.328606)"><g/></g></g><g fill="#000000" fill-opacity="1"><g transform="translate(63.140177, 9.328606)"><g><path d="M 2.859375 -6.453125 L 3.5 -6.453125 L 6.171875 0 L 5.4375 0 L 4.703125 -1.796875 L 1.65625 -1.796875 L 0.921875 0 L 0.1875 0 Z M 4.421875 -2.4375 L 3.1875 -5.484375 L 1.9375 -2.4375 Z M 4.421875 -2.4375 "/></g></g></g><g fill="#000000" fill-opacity="1"><g transform="translate(69.455954, 9.328606)"><g><path d="M 0.96875 -6.453125 L 3.546875 -6.453125 C 3.835938 -6.453125 4.101562 -6.398438 4.34375 -6.296875 C 4.582031 -6.203125 4.789062 -6.066406 4.96875 -5.890625 C 5.144531 -5.722656 5.28125 -5.519531 5.375 -5.28125 C 5.476562 -5.050781 5.53125 -4.796875 5.53125 -4.515625 C 5.53125 -4.148438 5.457031 -3.847656 5.3125 -3.609375 C 5.175781 -3.367188 5.023438 -3.179688 4.859375 -3.046875 C 4.660156 -2.878906 4.4375 -2.753906 4.1875 -2.671875 L 5.71875 0 L 4.9375 0 L 3.5 -2.578125 L 1.65625 -2.578125 L 1.65625 0 L 0.96875 0 Z M 3.546875 -3.21875 C 3.941406 -3.21875 4.253906 -3.332031 4.484375 -3.5625 C 4.722656 -3.800781 4.84375 -4.117188 4.84375 -4.515625 C 4.84375 -4.910156 4.722656 -5.222656 4.484375 -5.453125 C 4.253906 -5.691406 3.941406 -5.8125 3.546875 -5.8125 L 1.65625 -5.8125 L 1.65625 -3.21875 Z M 3.546875 -3.21875 "/></g></g></g><g fill="#000000" fill-opacity="1"><g transform="translate(75.633425, 9.328606)"><g><path d="M 0.96875 -6.453125 L 3.546875 -6.453125 C 3.835938 -6.453125 4.101562 -6.398438 4.34375 -6.296875 C 4.582031 -6.203125 4.789062 -6.066406 4.96875 -5.890625 C 5.144531 -5.722656 5.28125 -5.519531 5.375 -5.28125 C 5.476562 -5.050781 5.53125 -4.796875 5.53125 -4.515625 C 5.53125 -4.148438 5.457031 -3.847656 5.3125 -3.609375 C 5.175781 -3.367188 5.023438 -3.179688 4.859375 -3.046875 C 4.660156 -2.878906 4.4375 -2.753906 4.1875 -2.671875 L 5.71875 0 L 4.9375 0 L 3.5 -2.578125 L 1.65625 -2.578125 L 1.65625 0 L 0.96875 0 Z M 3.546875 -3.21875 C 3.941406 -3.21875 4.253906 -3.332031 4.484375 -3.5625 C 4.722656 -3.800781 4.84375 -4.117188 4.84375 -4.515625 C 4.84375 -4.910156 4.722656 -5.222656 4.484375 -5.453125 C 4.253906 -5.691406 3.941406 -5.8125 3.546875 -5.8125 L 1.65625 -5.8125 L 1.65625 -3.21875 Z M 3.546875 -3.21875 "/></g></g></g><g fill="#000000" fill-opacity="1"><g transform="translate(81.810895, 9.328606)"><g><path d="M 0.96875 -6.453125 L 1.65625 -6.453125 L 1.65625 0 L 0.96875 0 Z M 0.96875 -6.453125 "/></g></g></g><g fill="#000000" fill-opacity="1"><g transform="translate(84.392531, 9.328606)"><g><path d="M 0.28125 -6.453125 L 1.015625 -6.453125 L 3.140625 -0.96875 L 5.25 -6.453125 L 5.984375 -6.453125 L 3.453125 0 L 2.8125 0 Z M 0.28125 -6.453125 "/></g></g></g><g fill="#000000" fill-opacity="1"><g transform="translate(90.616112, 9.328606)"><g><path d="M 0.96875 -6.453125 L 5.390625 -6.453125 L 5.390625 -5.8125 L 1.65625 -5.8125 L 1.65625 -3.6875 L 4.65625 -3.6875 L 4.65625 -3.046875 L 1.65625 -3.046875 L 1.65625 -0.640625 L 5.484375 -0.640625 L 5.484375 0 L 0.96875 0 Z M 0.96875 -6.453125 "/></g></g></g><g fill="#000000" fill-opacity="1"><g transform="translate(96.470883, 9.328606)"><g><path d="M 2.578125 0.09375 C 2.210938 0.09375 1.890625 0.046875 1.609375 -0.046875 C 1.335938 -0.148438 1.113281 -0.265625 0.9375 -0.390625 C 0.726562 -0.523438 0.554688 -0.6875 0.421875 -0.875 L 0.828125 -1.34375 C 0.941406 -1.1875 1.082031 -1.054688 1.25 -0.953125 C 1.394531 -0.847656 1.578125 -0.753906 1.796875 -0.671875 C 2.015625 -0.585938 2.273438 -0.546875 2.578125 -0.546875 C 3.066406 -0.546875 3.4375 -0.65625 3.6875 -0.875 C 3.9375 -1.101562 4.0625 -1.394531 4.0625 -1.75 C 4.0625 -1.957031 4.007812 -2.128906 3.90625 -2.265625 C 3.800781 -2.398438 3.664062 -2.507812 3.5 -2.59375 C 3.34375 -2.6875 3.160156 -2.765625 2.953125 -2.828125 C 2.742188 -2.898438 2.523438 -2.96875 2.296875 -3.03125 C 2.078125 -3.101562 1.863281 -3.179688 1.65625 -3.265625 C 1.445312 -3.347656 1.257812 -3.453125 1.09375 -3.578125 C 0.9375 -3.710938 0.804688 -3.875 0.703125 -4.0625 C 0.597656 -4.257812 0.546875 -4.503906 0.546875 -4.796875 C 0.546875 -5.023438 0.59375 -5.242188 0.6875 -5.453125 C 0.789062 -5.671875 0.929688 -5.859375 1.109375 -6.015625 C 1.285156 -6.179688 1.5 -6.3125 1.75 -6.40625 C 2.007812 -6.5 2.300781 -6.546875 2.625 -6.546875 C 2.9375 -6.546875 3.207031 -6.5 3.4375 -6.40625 C 3.675781 -6.320312 3.875 -6.226562 4.03125 -6.125 C 4.21875 -6.007812 4.378906 -5.875 4.515625 -5.71875 L 4.0625 -5.25 C 3.957031 -5.375 3.835938 -5.484375 3.703125 -5.578125 C 3.578125 -5.660156 3.425781 -5.734375 3.25 -5.796875 C 3.070312 -5.867188 2.863281 -5.90625 2.625 -5.90625 C 2.40625 -5.90625 2.207031 -5.875 2.03125 -5.8125 C 1.863281 -5.75 1.71875 -5.664062 1.59375 -5.5625 C 1.476562 -5.457031 1.390625 -5.335938 1.328125 -5.203125 C 1.273438 -5.078125 1.25 -4.941406 1.25 -4.796875 C 1.25 -4.515625 1.332031 -4.296875 1.5 -4.140625 C 1.675781 -3.992188 1.894531 -3.867188 2.15625 -3.765625 C 2.414062 -3.671875 2.695312 -3.582031 3 -3.5 C 3.300781 -3.425781 3.582031 -3.320312 3.84375 -3.1875 C 4.101562 -3.0625 4.316406 -2.882812 4.484375 -2.65625 C 4.660156 -2.4375 4.75 -2.132812 4.75 -1.75 C 4.75 -1.488281 4.703125 -1.242188 4.609375 -1.015625 C 4.515625 -0.796875 4.375 -0.601562 4.1875 -0.4375 C 4 -0.269531 3.769531 -0.140625 3.5 -0.046875 C 3.226562 0.046875 2.921875 0.09375 2.578125 0.09375 Z M 2.578125 0.09375 "/></g></g></g><g fill="#000000" fill-opacity="1"><g transform="translate(101.634143, 9.328606)"><g/></g></g><g fill="#000000" fill-opacity="1"><g transform="translate(103.524269, 9.328606)"><g><path d="M 2.578125 0.09375 C 2.210938 0.09375 1.890625 0.046875 1.609375 -0.046875 C 1.335938 -0.148438 1.113281 -0.265625 0.9375 -0.390625 C 0.726562 -0.523438 0.554688 -0.6875 0.421875 -0.875 L 0.828125 -1.34375 C 0.941406 -1.1875 1.082031 -1.054688 1.25 -0.953125 C 1.394531 -0.847656 1.578125 -0.753906 1.796875 -0.671875 C 2.015625 -0.585938 2.273438 -0.546875 2.578125 -0.546875 C 3.066406 -0.546875 3.4375 -0.65625 3.6875 -0.875 C 3.9375 -1.101562 4.0625 -1.394531 4.0625 -1.75 C 4.0625 -1.957031 4.007812 -2.128906 3.90625 -2.265625 C 3.800781 -2.398438 3.664062 -2.507812 3.5 -2.59375 C 3.34375 -2.6875 3.160156 -2.765625 2.953125 -2.828125 C 2.742188 -2.898438 2.523438 -2.96875 2.296875 -3.03125 C 2.078125 -3.101562 1.863281 -3.179688 1.65625 -3.265625 C 1.445312 -3.347656 1.257812 -3.453125 1.09375 -3.578125 C 0.9375 -3.710938 0.804688 -3.875 0.703125 -4.0625 C 0.597656 -4.257812 0.546875 -4.503906 0.546875 -4.796875 C 0.546875 -5.023438 0.59375 -5.242188 0.6875 -5.453125 C 0.789062 -5.671875 0.929688 -5.859375 1.109375 -6.015625 C 1.285156 -6.179688 1.5 -6.3125 1.75 -6.40625 C 2.007812 -6.5 2.300781 -6.546875 2.625 -6.546875 C 2.9375 -6.546875 3.207031 -6.5 3.4375 -6.40625 C 3.675781 -6.320312 3.875 -6.226562 4.03125 -6.125 C 4.21875 -6.007812 4.378906 -5.875 4.515625 -5.71875 L 4.0625 -5.25 C 3.957031 -5.375 3.835938 -5.484375 3.703125 -5.578125 C 3.578125 -5.660156 3.425781 -5.734375 3.25 -5.796875 C 3.070312 -5.867188 2.863281 -5.90625 2.625 -5.90625 C 2.40625 -5.90625 2.207031 -5.875 2.03125 -5.8125 C 1.863281 -5.75 1.71875 -5.664062 1.59375 -5.5625 C 1.476562 -5.457031 1.390625 -5.335938 1.328125 -5.203125 C 1.273438 -5.078125 1.25 -4.941406 1.25 -4.796875 C 1.25 -4.515625 1.332031 -4.296875 1.5 -4.140625 C 1.675781 -3.992188 1.894531 -3.867188 2.15625 -3.765625 C 2.414062 -3.671875 2.695312 -3.582031 3 -3.5 C 3.300781 -3.425781 3.582031 -3.320312 3.84375 -3.1875 C 4.101562 -3.0625 4.316406 -2.882812 4.484375 -2.65625 C 4.660156 -2.4375 4.75 -2.132812 4.75 -1.75 C 4.75 -1.488281 4.703125 -1.242188 4.609375 -1.015625 C 4.515625 -0.796875 4.375 -0.601562 4.1875 -0.4375 C 4 -0.269531 3.769531 -0.140625 3.5 -0.046875 C 3.226562 0.046875 2.921875 0.09375 2.578125 0.09375 Z M 2.578125 0.09375 "/></g></g></g><g fill="#000000" fill-opacity="1"><g transform="translate(108.687529, 9.328606)"><g><path d="M 2.859375 -6.453125 L 3.5 -6.453125 L 6.171875 0 L 5.4375 0 L 4.703125 -1.796875 L 1.65625 -1.796875 L 0.921875 0 L 0.1875 0 Z M 4.421875 -2.4375 L 3.1875 -5.484375 L 1.9375 -2.4375 Z M 4.421875 -2.4375 "/></g></g></g><g fill="#000000" fill-opacity="1"><g transform="translate(115.003307, 9.328606)"><g><path d="M 0.96875 -6.453125 L 5.34375 -6.453125 L 5.34375 -5.8125 L 1.65625 -5.8125 L 1.65625 -3.59375 L 4.609375 -3.59375 L 4.609375 -2.953125 L 1.65625 -2.953125 L 1.65625 0 L 0.96875 0 Z M 0.96875 -6.453125 "/></g></g></g><g fill="#000000" fill-opacity="1"><g transform="translate(120.627574, 9.328606)"><g><path d="M 0.96875 -6.453125 L 5.390625 -6.453125 L 5.390625 -5.8125 L 1.65625 -5.8125 L 1.65625 -3.6875 L 4.65625 -3.6875 L 4.65625 -3.046875 L 1.65625 -3.046875 L 1.65625 -0.640625 L 5.484375 -0.640625 L 5.484375 0 L 0.96875 0 Z M 0.96875 -6.453125 "/></g></g></g><g fill="#000000" fill-opacity="1"><g transform="translate(126.482344, 9.328606)"><g><path d="M 0.96875 -6.453125 L 1.65625 -6.453125 L 1.65625 -0.640625 L 4.984375 -0.640625 L 4.984375 0 L 0.96875 0 Z M 0.96875 -6.453125 "/></g></g></g><g fill="#000000" fill-opacity="1"><g transform="translate(131.599506, 9.328606)"><g><path d="M 2.578125 -2.265625 L 0.1875 -6.453125 L 0.96875 -6.453125 L 2.90625 -3 L 2.953125 -3 L 4.890625 -6.453125 L 5.671875 -6.453125 L 3.265625 -2.265625 L 3.265625 0 L 2.578125 0 Z M 2.578125 -2.265625 "/></g></g></g><g fill="#000000" fill-opacity="1"><g transform="translate(137.408178, 9.328606)"><g><path d="M 0.96875 0.09375 C 0.820312 0.09375 0.707031 0.0507812 0.625 -0.03125 C 0.539062 -0.113281 0.5 -0.226562 0.5 -0.375 C 0.5 -0.507812 0.539062 -0.617188 0.625 -0.703125 C 0.707031 -0.785156 0.820312 -0.828125 0.96875 -0.828125 C 1.113281 -0.828125 1.222656 -0.785156 1.296875 -0.703125 C 1.378906 -0.617188 1.421875 -0.507812 1.421875 -0.375 C 1.421875 -0.226562 1.378906 -0.113281 1.296875 -0.03125 C 1.222656 0.0507812 1.113281 0.09375 0.96875 0.09375 Z M 0.96875 0.09375 "/></g></g></g></g></g></svg>